<svg xmlns="http://www.w3.org/2000/svg" width="22.352" height="25.001" viewBox="0 0 22.352 25.001">
  <g id="Groupe_323" data-name="Groupe 323" transform="translate(-291.824 -41.999)">
    <g id="Groupe_473" data-name="Groupe 473" transform="translate(295 50)">
      <rect id="Rectangle_479" data-name="Rectangle 479" width="17" height="17" fill="none"/>
      <path id="Tracé_1" data-name="Tracé 1" d="M15.938,14.875H10.624a2.126,2.126,0,0,1-4.251,0H1.059A1.021,1.021,0,0,1,.1,14.131a1.134,1.134,0,0,1,.319-1.169,4.277,4.277,0,0,0,1.7-3.4V6.375a6.377,6.377,0,0,1,12.754,0V9.563a4.277,4.277,0,0,0,1.7,3.4,1.006,1.006,0,0,1,.319,1.169A1.021,1.021,0,0,1,15.938,14.875Z" transform="translate(-0.063)" fill="#ff4b21" fill-rule="evenodd"/>
    </g>
    <path id="Tracé_1078" data-name="Tracé 1078" d="M0,0A8.115,8.115,0,0,0,1.253,1.7,9.016,9.016,0,0,0,3,3" transform="translate(292.5 45.5)" fill="none" stroke="#ff4b21" stroke-linecap="round" stroke-width="1"/>
    <path id="Tracé_1079" data-name="Tracé 1079" d="M.2.139s.445.494.971,1.046S2.2,2.272,2.2,2.272" transform="translate(303.564 42.76) rotate(43)" fill="none" stroke="#ff4b21" stroke-linecap="round" stroke-width="1"/>
    <path id="Tracé_1080" data-name="Tracé 1080" d="M3,0A8.115,8.115,0,0,1,1.747,1.7,9.016,9.016,0,0,1,0,3" transform="translate(310.5 45.5)" fill="none" stroke="#ff4b21" stroke-linecap="round" stroke-width="1"/>
  </g>
</svg>
