<svg xmlns="http://www.w3.org/2000/svg" width="40" height="40" viewBox="0 0 40 40">
  <g id="Groupe_23" data-name="Groupe 23" transform="translate(-288 -595)">
    <g id="Groupe_443" data-name="Groupe 443" transform="translate(301 607)">
      <rect id="Rectangle_1481" data-name="Rectangle 1481" width="16" height="16" transform="translate(0 0.008)" fill="none"/>
      <path id="pen-solid" d="M9.075,2.921l4,4L4.388,15.608.822,16a.75.75,0,0,1-.828-.828l.4-3.569Zm6.475-.6L13.671.447a1.5,1.5,0,0,0-2.122,0L9.782,2.214l4,4L15.55,4.447A1.5,1.5,0,0,0,15.55,2.325Z" transform="translate(0.011 -0.008)" fill="#ff4b21"/>
    </g>
    <g id="Groupe_22" data-name="Groupe 22">
      <g id="Ellipse_115" data-name="Ellipse 115" transform="translate(288 595)" fill="none" stroke="#da4d41" stroke-width="1">
        <circle cx="20" cy="20" r="20" stroke="none"/>
        <circle cx="20" cy="20" r="19.5" fill="none"/>
      </g>
    </g>
  </g>
</svg>
