<svg xmlns="http://www.w3.org/2000/svg" xmlns:xlink="http://www.w3.org/1999/xlink" width="35" height="35" viewBox="0 0 35 35">
  <defs>
    <filter id="Tracé_1099" x="0" y="0" width="35" height="35" filterUnits="userSpaceOnUse">
      <feOffset dx="2" dy="2" input="SourceAlpha"/>
      <feGaussianBlur stdDeviation="2.5" result="blur"/>
      <feFlood flood-color="#ff4b21"/>
      <feComposite operator="in" in2="blur"/>
      <feComposite in="SourceGraphic"/>
    </filter>
  </defs>
  <g transform="matrix(1, 0, 0, 1, 0, 0)" filter="url(#Tracé_1099)">
    <g id="Tracé_1099-2" data-name="Tracé 1099" transform="translate(5.5 5.5)" fill="none" stroke-linecap="round" stroke-linejoin="bevel" stroke-dasharray="10">
      <path d="M2,0H18a2,2,0,0,1,2,2V18a2,2,0,0,1-2,2H2a2,2,0,0,1-2-2V2A2,2,0,0,1,2,0Z" stroke="none"/>
      <path d="M 2 0 L 12 0 C 12.82843017578125 0 13.5 0.67156982421875 13.5 1.5 C 13.5 2.32843017578125 12.82843017578125 3 12 3 L 2 3 C 1.17156982421875 3 0.5 2.32843017578125 0.5 1.5 C 0.5 0.67156982421875 1.17156982421875 0 2 0 C 2 0 2 0 2 0 Z M 18.5 1.358039855957031 C 19.32843017578125 1.358039855957031 20 2.029609680175781 20 2.858039855957031 C 20 2.858039855957031 20 12.85803985595703 20 12.85803985595703 C 20 13.68647003173828 19.32843017578125 14.35803985595703 18.5 14.35803985595703 C 17.67156982421875 14.35803985595703 17 13.68647003173828 17 12.85803985595703 L 17 2.858039855957031 C 17 2.029609680175781 17.67156982421875 1.358039855957031 18.5 1.358039855957031 Z M 6.283920288085938 17 L 16.28392028808594 17 C 17.11235046386719 17 17.78392028808594 17.67156982421875 17.78392028808594 18.5 C 17.78392028808594 19.32843017578125 17.11235046386719 20 16.28392028808594 20 C 16.28392028808594 20 6.283920288085938 20 6.283920288085938 20 C 5.455490112304688 20 4.783920288085938 19.32843017578125 4.783920288085938 18.5 C 4.783920288085938 17.67156982421875 5.455490112304688 17 6.283920288085938 17 Z M 1.5 3.925880432128906 C 2.32843017578125 3.925880432128906 3 4.597450256347656 3 5.425880432128906 L 3 15.42588043212891 C 3 16.25431060791016 2.32843017578125 16.92588043212891 1.5 16.92588043212891 C 0.67156982421875 16.92588043212891 0 16.25431060791016 0 15.42588043212891 L 0 5.425880432128906 C 0 4.597450256347656 0.67156982421875 3.925880432128906 1.5 3.925880432128906 Z" stroke="none" fill="#ff4b21"/>
    </g>
  </g>
</svg>
