<svg xmlns="http://www.w3.org/2000/svg" width="20" height="26.157" viewBox="0 0 20 26.157">
  <path id="music-solid" d="M18.374.105,5.875,4.933A1.649,1.649,0,0,0,5,6.491V19.847a4.226,4.226,0,0,0-1.25-.2A3.535,3.535,0,0,0,0,22.916a3.535,3.535,0,0,0,3.75,3.27,3.535,3.535,0,0,0,3.75-3.27V10.978l10-3.832v9.432a4.209,4.209,0,0,0-1.25-.2,3.535,3.535,0,0,0-3.75,3.27,3.535,3.535,0,0,0,3.75,3.27A3.535,3.535,0,0,0,20,19.647V1.663A1.838,1.838,0,0,0,19.489.346a1.017,1.017,0,0,0-1.114-.24Z" transform="translate(0 -0.03)" fill="#fef4db"/>
</svg>
