<svg id="Groupe_460" data-name="Groupe 460" xmlns="http://www.w3.org/2000/svg" width="16" height="16" viewBox="0 0 16 16">
  <rect id="Rectangle_1479" data-name="Rectangle 1479" width="16" height="16" fill="none"/>
  <path id="reply-solid" d="M.26,36.932l5.5-4.75A.751.751,0,0,1,7,32.751v2.5c5.02.057,9,1.063,9,5.821a6.388,6.388,0,0,1-2.6,4.817.557.557,0,0,1-.877-.582c1.417-4.532-.672-5.735-5.518-5.8V42.25a.75.75,0,0,1-1.24.568l-5.5-4.75a.75.75,0,0,1,0-1.135Z" transform="translate(0 -31)" fill="#ff4b21"/>
</svg>
